<?xml version="1.0" encoding="UTF-8" standalone="no"?>
<svg width="58px" height="90px" viewBox="0 0 58 90" version="1.1" xmlns="http://www.w3.org/2000/svg" xmlns:xlink="http://www.w3.org/1999/xlink">
    <!-- Generator: Sketch 3.7.2 (28276) - http://www.bohemiancoding.com/sketch -->
    <title>Fill-1</title>
    <desc>Created with Sketch.</desc>
    <defs></defs>
    <g id="Page-1" stroke="none" stroke-width="1" fill="none" fill-rule="evenodd">
        <g id="lightning" fill="#DEBF7C">
            <g id="Welcome">
                <g id="Resources-&amp;-Inspiration">
                    <g id="Zap-Bolt">
                        <path d="M11.5,89.5 C7.5,88.7 4.8,85.2 1.2,84.5 C0.3,83.4 0.4,82.5 0.6,81.7 C1.3,77.5 3,73.7 4.4,69.7 C6.3,64.2 8,58.5 9.6,53.2 C7.4,49.9 5,47.5 2.4,45.2 C1,44 0.6,42.3 1.3,40.6 C2.5,37.5 3.1,34.4 5,31.4 C6.6,28.9 7.6,25.9 8.7,23 C9.8,19.9 11.1,16.8 12.7,13.9 C14.7,10.1 16,6.2 17.4,2.2 C17.5,1.5 17.6,0.6 18.5,0.5 C23.4,0.5 28.39999,0.4 33.3,0.5 C38.2,0.6 43.2,0.8 48.1,0.5 C50.7,3.7 53.6,6.5 57.1,9.3 C57.5,9.9 57.5,10.9 57.4,12.1 C51.2,17.4 46.6,24.5 41.2,30.8 C38.4,34 38.5,35.1 41.7,38.1 C43.7,40 46,41.7 47.4,44.2 C46.9,45.8 45.9,47 44.5,48.2 C41.7,50.7 39.2,53.4 37,56.4 C32.9,61.89999 28,66.7 24,72.2 C21,76.3 18.3,80.5 14.9,84.3 C14.4,84.89999 14.2,85.6 13.9,86.3 C13.4,87.4 13.1,88.8 11.5,89.5 L11.5,89.5 L11.5,89.5 Z M4.9,41.3 C9.2,42.1 13.3,41.1 17.7,41.3 C13.7,54 8.5,65.7 5.7,78.39999 C15.9,65.39999 25.9,52.39999 34.8,38.39999 C30.3,38.19999 25.9,39.39999 21.6,38.89999 C29.4,27.19999 37.2,15.7 44.8,3.5 C36.6,4.5 28.6,2.8 21,3.8 C14.5,15.9 10.6,28.7 4.9,41.3 L4.9,41.3 L4.9,41.3 Z M42.9,9.4 C45.5,11 47.1,13.8 49.7,15.2 C50.4,14.8 50.8,14.5 50.9,13.6 C48.7,11.6 46.4,9.5 44.2,7.6 C43.2,8.1 42.9,8.5 42.9,9.4 L42.9,9.4 L42.9,9.4 Z M37.7,29.5 C35.8,27.9 34.6,25.7 32.5,24.5 C31.6,25.2 31.4,26 31,27 C32.5,28.5 33.5,30.6 35.9,31.4 C34.9,29.1 32.5,28.2 32,25.6 C34.3,27 35.1,29.6 37.7,29.5 L37.7,29.5 L37.7,29.5 Z M34.2,53.9 C32.5,52.5 30.9,51.1 29.4,49.8 C28.6,50.3 28.2,50.8 28.4,51.5 C29.8,52.8 31.3,54.2 32.7,55.5 L33.1,55.5 C33.3,55.1 34,54.9 34.2,53.9 L34.2,53.9 L34.2,53.9 Z M51.8,12.4 C51.60001,11 46.2,5.2 45.4,5.4 C44.9,5.7 44.6,6.2 44.8,6.9 C47,8.6 49.1,10.8 51.8,12.4 L51.8,12.4 L51.8,12.4 Z M31.4,47.5 C30.6,47.8 30.2,48.2 30.2,49.1 C32,50.3 33.3,52.4 36.1,52.6 C34.4,50.7 33,49.1 31.4,47.5 L31.4,47.5 L31.4,47.5 Z M41.9,10.7 C43.6,13.4 46.1,15.2 48.2,17.4 C48.4,16 44.9,12.1 41.9,10.7 L41.9,10.7 L41.9,10.7 Z M46,19.7 C44.3,17.3 41.8,15.9 39.7,14.2 C41,17 43.5,18.3 46,19.7 L46,19.7 L46,19.7 Z M24.3,56.2 C24,57.7 25.9,59.6 28.9,60.2 C27.5,58.8 25.9,57.5 24.3,56.2 L24.3,56.2 L24.3,56.2 Z M10.4,75.8 C11.6,76.8 12.5,78.5 14.6,78.5 C14.2,77 11.9,74.4 11.1,74.5 C10.5,74.6 10.4,75 10.4,75.8 L10.4,75.8 L10.4,75.8 Z M34.9,33.2 C33.3,31 31.9,29.5 30.1,28 C30,30.3 31.8,32.2 34.9,33.2 L34.9,33.2 L34.9,33.2 Z M13.3,80.4 C12.1,78.8 10.8,77.6 9.3,76.6 C8.5,78.6 10.3,80.3 13.3,80.4 L13.3,80.4 L13.3,80.4 Z M26.2,63.4 C25.2,61.3 23.3,59.8 21.7,59.7 C23,61.4 24.1,62.9 26.2,63.4 L26.2,63.4 L26.2,63.4 Z M22.1,68.7 C20.3,65.7 18.9,64.8 17.6,65.5 C18.8,67.2 20.2,68.2 22.1,68.7 L22.1,68.7 L22.1,68.7 Z M6.7,80 C8.2,81 9.4,82.5 11.3,82.4 C10,81.3 9,79.9 7.8,79 C7.2,79 7,79.3 6.7,80 L6.7,80 L6.7,80 Z M37.1,50.5 C34.1,46.5 33.6,46.2 31.8,46 C33.4,47.9 35.2,49.3 37.1,50.5 L37.1,50.5 L37.1,50.5 Z M37.5,17.6 C39,19.9 40.9,21.7 43.4,22.7 C41.3,21.3 39.9,18.9 37.5,17.6 L37.5,17.6 L37.5,17.6 Z M16.1,75.8 C15.2,74.3 14.1,73 12.2,72.60001 C12.6,74.8 14.3,75.3 16.1,75.8 L16.1,75.8 L16.1,75.8 Z M31.5,56.9 C30.1,55.3 29.2,53.3 27,52.8 C28.1,54.6 29.3,56.3 31.5,56.9 L31.5,56.9 L31.5,56.9 Z M6.2,42.9 C7.9,44.6 9,46.1 10.8,46.7 C9.9,45 9.2,43 6.2,42.9 L6.2,42.9 L6.2,42.9 Z M36.7,19 C36.6,19.1 36.5,19.3 36.4,19.4 C37.5,21.4 39.3,22.9 42.3,24.2 C40.1,22.3 38.4,20.6 36.7,19 L36.7,19 L36.7,19 Z M24.9,65.5 C23.6,63.5 22.4,62.2 20.6,61.6 C21.4,63.3 22.6,64.6 24.9,65.5 L24.9,65.5 L24.9,65.5 Z M19.1,72.2 C18,70.8 17,69.39999 14.8,68.7 C15.8,71 17.4,71.7 19.1,72.2 L19.1,72.2 L19.1,72.2 Z M38.7,46.1 C37.8,44.2 36.6,42.7 34.5,42 C35.9,43.5 36.9,45.2 38.7,46.1 L38.7,46.1 L38.7,46.1 Z M45.1,21.6 C43.6,19.6 41.8,18.9 40.5,17.7 C41.4,19.3 42.7,20.7 45.1,21.6 L45.1,21.6 L45.1,21.6 Z M13.7,70.9 C14.5,72.6 15.9,73.4 17.6,73.9 C16.4,72.9 15.6,71.2 13.7,70.9 L13.7,70.9 L13.7,70.9 Z M20.2,70.5 C19.3,68.9 18.2,67.6 16.3,67.2 C17.3,68.9 18.9,69.6 20.2,70.5 L20.2,70.5 L20.2,70.5 Z M19.5,63.4 C20.3,65.2 22,65.9 23.4,67 C22.2,65.5 21.1,64.2 19.5,63.4 L19.5,63.4 L19.5,63.4 Z M33.5,23.2 C35.3,25.8 35.8,26.2 37.5,26.6 C36.3,25.3 35.1,24.2 33.5,23.2 L33.5,23.2 L33.5,23.2 Z M43.3,15 C42.6,14 42.2,12.6 40.4,12.3 C41.1,13.9 42.1,14.5 43.3,15 L43.3,15 L43.3,15 Z M36.7,22.4 C37.8,23.5 38.6,24.9 40.2,25.4 C39.3,24.1 38.2,23.1 36.7,22.4 L36.7,22.4 L36.7,22.4 Z M33.7,43.8 C34.4,45.2 35.3,46.4 36.8,46.9 C36,45.7 35,44.5 33.7,43.8 L33.7,43.8 L33.7,43.8 Z M29.5,36.2 C29.6,36.1 29.8,36 29.9,35.8 C29,34.8 28.1,33.9 27.2,32.9 C27.1,33 26.9,33.2 26.8,33.3 C27.8,34.3 28.6,35.3 29.5,36.2 L29.5,36.2 L29.5,36.2 Z M10.5,43.3 C10.8,44.4 11.6,45.1 12.5,45.6 C12,44.7 11.5,43.7 10.5,43.3 L10.5,43.3 L10.5,43.3 Z M28.5,57.3 C27.8,56.2 27.1,55.2 25.8,54.8 C26.4,55.9 27.3,56.8 28.5,57.3 L28.5,57.3 L28.5,57.3 Z" id="Fill-1"></path>
                    </g>
                </g>
            </g>
        </g>
    </g>
</svg>