<svg width="58" height="90" viewBox="0 0 58 90" xmlns="http://www.w3.org/2000/svg"><title>Fill-1</title><path d="M11.5 89.5c-4-.8-6.7-4.3-10.3-5-.9-1.1-.8-2-.6-2.8.7-4.2 2.4-8 3.8-12C6.3 64.2 8 58.5 9.6 53.2c-2.2-3.3-4.6-5.7-7.2-8C1 44 .6 42.3 1.3 40.6c1.2-3.1 1.8-6.2 3.7-9.2 1.6-2.5 2.6-5.5 3.7-8.4 1.1-3.1 2.4-6.2 4-9.1 2-3.8 3.3-7.7 4.7-11.7.1-.7.2-1.6 1.1-1.7 4.9 0 9.9-.1 14.8 0s9.9.3 14.8 0c2.6 3.2 5.5 6 9 8.8.4.6.4 1.6.3 2.8-6.2 5.3-10.8 12.4-16.2 18.7-2.8 3.2-2.7 4.3.5 7.3 2 1.9 4.3 3.6 5.7 6.1-.5 1.6-1.5 2.8-2.9 4-2.8 2.5-5.3 5.2-7.5 8.2-4.1 5.5-9 10.3-13 15.8-3 4.1-5.7 8.3-9.1 12.1-.5.6-.7 1.3-1 2-.5 1.1-.8 2.5-2.4 3.2zM4.9 41.3c4.3.8 8.4-.2 12.8 0-4 12.7-9.2 24.4-12 37.1 10.2-13 20.2-26 29.1-40-4.5-.2-8.9 1-13.2.5 7.8-11.7 15.6-23.2 23.2-35.4-8.2 1-16.2-.7-23.8.3-6.5 12.1-10.4 24.9-16.1 37.5zm38-31.9c2.6 1.6 4.2 4.4 6.8 5.8.7-.4 1.1-.7 1.2-1.6-2.2-2-4.5-4.1-6.7-6-1 .5-1.3.9-1.3 1.8zm-5.2 20.1c-1.9-1.6-3.1-3.8-5.2-5-.9.7-1.1 1.5-1.5 2.5 1.5 1.5 2.5 3.6 4.9 4.4-1-2.3-3.4-3.2-3.9-5.8 2.3 1.4 3.1 4 5.7 3.9zm-3.5 24.4c-1.7-1.4-3.3-2.8-4.8-4.1-.8.5-1.2 1-1 1.7 1.4 1.3 2.9 2.7 4.3 4h.4c.2-.4.9-.6 1.1-1.6zm17.6-41.5c-.2-1.4-5.6-7.2-6.4-7-.5.3-.8.8-.6 1.5 2.2 1.7 4.3 3.9 7 5.5zM31.4 47.5c-.8.3-1.2.7-1.2 1.6 1.8 1.2 3.1 3.3 5.9 3.5-1.7-1.9-3.1-3.5-4.7-5.1zm10.5-36.8c1.7 2.7 4.2 4.5 6.3 6.7.2-1.4-3.3-5.3-6.3-6.7zm4.1 9c-1.7-2.4-4.2-3.8-6.3-5.5 1.3 2.8 3.8 4.1 6.3 5.5zM24.3 56.2c-.3 1.5 1.6 3.4 4.6 4-1.4-1.4-3-2.7-4.6-4zM10.4 75.8c1.2 1 2.1 2.7 4.2 2.7-.4-1.5-2.7-4.1-3.5-4-.6.1-.7.5-.7 1.3zm24.5-42.6c-1.6-2.2-3-3.7-4.8-5.2-.1 2.3 1.7 4.2 4.8 5.2zM13.3 80.4c-1.2-1.6-2.5-2.8-4-3.8-.8 2 1 3.7 4 3.8zm12.9-17c-1-2.1-2.9-3.6-4.5-3.7 1.3 1.7 2.4 3.2 4.5 3.7zm-4.1 5.3c-1.8-3-3.2-3.9-4.5-3.2 1.2 1.7 2.6 2.7 4.5 3.2zM6.7 80c1.5 1 2.7 2.5 4.6 2.4C10 81.3 9 79.9 7.8 79c-.6 0-.8.3-1.1 1zm30.4-29.5c-3-4-3.5-4.3-5.3-4.5 1.6 1.9 3.4 3.3 5.3 4.5zm.4-32.9c1.5 2.3 3.4 4.1 5.9 5.1-2.1-1.4-3.5-3.8-5.9-5.1zM16.1 75.8c-.9-1.5-2-2.8-3.9-3.2.4 2.2 2.1 2.7 3.9 3.2zm15.4-18.9c-1.4-1.6-2.3-3.6-4.5-4.1 1.1 1.8 2.3 3.5 4.5 4.1zm-25.3-14c1.7 1.7 2.8 3.2 4.6 3.8-.9-1.7-1.6-3.7-4.6-3.8zM36.7 19c-.1.1-.2.3-.3.4 1.1 2 2.9 3.5 5.9 4.8-2.2-1.9-3.9-3.6-5.6-5.2zM24.9 65.5c-1.3-2-2.5-3.3-4.3-3.9.8 1.7 2 3 4.3 3.9zm-5.8 6.7c-1.1-1.4-2.1-2.8-4.3-3.5 1 2.3 2.6 3 4.3 3.5zm19.6-26.1c-.9-1.9-2.1-3.4-4.2-4.1 1.4 1.5 2.4 3.2 4.2 4.1zm6.4-24.5c-1.5-2-3.3-2.7-4.6-3.9.9 1.6 2.2 3 4.6 3.9zM13.7 70.9c.8 1.7 2.2 2.5 3.9 3-1.2-1-2-2.7-3.9-3zm6.5-.4c-.9-1.6-2-2.9-3.9-3.3 1 1.7 2.6 2.4 3.9 3.3zm-.7-7.1c.8 1.8 2.5 2.5 3.9 3.6-1.2-1.5-2.3-2.8-3.9-3.6zm14-40.2c1.8 2.6 2.3 3 4 3.4-1.2-1.3-2.4-2.4-4-3.4zm9.8-8.2c-.7-1-1.1-2.4-2.9-2.7.7 1.6 1.7 2.2 2.9 2.7zm-6.6 7.4c1.1 1.1 1.9 2.5 3.5 3-.9-1.3-2-2.3-3.5-3zm-3 21.4c.7 1.4 1.6 2.6 3.1 3.1-.8-1.2-1.8-2.4-3.1-3.1zm-4.2-7.6c.1-.1.3-.2.4-.4-.9-1-1.8-1.9-2.7-2.9l-.4.4c1 1 1.8 2 2.7 2.9zm-19 7.1c.3 1.1 1.1 1.8 2 2.3-.5-.9-1-1.9-2-2.3zm18 14c-.7-1.1-1.4-2.1-2.7-2.5.6 1.1 1.5 2 2.7 2.5z" fill="#DEBF7C" fill-rule="evenodd"/></svg>